<?xml version="1.0" encoding="UTF-8" standalone="no"?>
<!DOCTYPE svg PUBLIC "-//W3C//DTD SVG 1.1//EN"
 "http://www.w3.org/Graphics/SVG/1.1/DTD/svg11.dtd">
<!-- Generated by graphviz version 2.40.1 (20161225.0304)
 -->
<!-- Title: %3 Pages: 1 -->
<svg width="814pt" height="654pt"
 viewBox="0.00 0.00 813.56 654.43" xmlns="http://www.w3.org/2000/svg" xmlns:xlink="http://www.w3.org/1999/xlink">
<g id="graph0" class="graph" transform="scale(1 1) rotate(0) translate(4 650.4335)">
<title>%3</title>
<polygon fill="#ffffff" stroke="transparent" points="-4,4 -4,-650.4335 809.5599,-650.4335 809.5599,4 -4,4"/>
<!-- rpi1 -->
<g id="node1" class="node">
<title>rpi1</title>
<ellipse fill="none" stroke="#000000" cx="39.5599" cy="-628.4335" rx="29.795" ry="18"/>
<text text-anchor="middle" x="39.5599" y="-624.7335" font-family="Times,serif" font-size="14.00" fill="#000000">rpi1</text>
</g>
<!-- maskrom1 -->
<g id="node2" class="node">
<title>maskrom1</title>
<ellipse fill="none" stroke="#000000" cx="85.5599" cy="-555.4335" rx="59.5901" ry="18"/>
<text text-anchor="middle" x="85.5599" y="-551.7335" font-family="Times,serif" font-size="14.00" fill="#000000">maskrom1</text>
</g>
<!-- rpi1&#45;&gt;maskrom1 -->
<g id="edge1" class="edge">
<title>rpi1&#45;&gt;maskrom1</title>
<path fill="none" stroke="#000000" d="M50.2289,-611.5024C55.756,-602.7311 62.6319,-591.8193 68.8451,-581.9592"/>
<polygon fill="#000000" stroke="#000000" points="71.9369,-583.6177 74.3071,-573.2914 66.0147,-579.8858 71.9369,-583.6177"/>
</g>
<!-- sd_bootcode -->
<g id="node9" class="node">
<title>sd_bootcode</title>
<ellipse fill="none" stroke="#000000" cx="85.5599" cy="-459.5635" rx="85.6199" ry="26.7407"/>
<text text-anchor="middle" x="85.5599" y="-463.3635" font-family="Times,serif" font-size="14.00" fill="#000000">bootcode.bin</text>
<text text-anchor="middle" x="85.5599" y="-448.3635" font-family="Times,serif" font-size="14.00" fill="#000000">on primary SD</text>
</g>
<!-- maskrom1&#45;&gt;sd_bootcode -->
<g id="edge6" class="edge">
<title>maskrom1&#45;&gt;sd_bootcode</title>
<path fill="none" stroke="#000000" d="M85.5599,-537.4011C85.5599,-525.9902 85.5599,-510.8153 85.5599,-496.896"/>
<polygon fill="#000000" stroke="#000000" points="89.06,-496.5796 85.5599,-486.5797 82.06,-496.5797 89.06,-496.5796"/>
</g>
<!-- rpi2 -->
<g id="node3" class="node">
<title>rpi2</title>
<ellipse fill="none" stroke="#000000" cx="117.5599" cy="-628.4335" rx="29.795" ry="18"/>
<text text-anchor="middle" x="117.5599" y="-624.7335" font-family="Times,serif" font-size="14.00" fill="#000000">rpi2</text>
</g>
<!-- rpi2&#45;&gt;maskrom1 -->
<g id="edge2" class="edge">
<title>rpi2&#45;&gt;maskrom1</title>
<path fill="none" stroke="#000000" d="M109.8136,-610.7623C106.1344,-602.3692 101.6534,-592.1469 97.5489,-582.7834"/>
<polygon fill="#000000" stroke="#000000" points="100.6776,-581.2027 93.4572,-573.4492 94.2665,-584.0131 100.6776,-581.2027"/>
</g>
<!-- rpi2b -->
<g id="node4" class="node">
<title>rpi2b</title>
<ellipse fill="none" stroke="#000000" cx="265.5599" cy="-628.4335" rx="35.9954" ry="18"/>
<text text-anchor="middle" x="265.5599" y="-624.7335" font-family="Times,serif" font-size="14.00" fill="#000000">rpi2b</text>
</g>
<!-- maskrom2 -->
<g id="node5" class="node">
<title>maskrom2</title>
<ellipse fill="none" stroke="#000000" cx="307.5599" cy="-555.4335" rx="59.5901" ry="18"/>
<text text-anchor="middle" x="307.5599" y="-551.7335" font-family="Times,serif" font-size="14.00" fill="#000000">maskrom2</text>
</g>
<!-- rpi2b&#45;&gt;maskrom2 -->
<g id="edge3" class="edge">
<title>rpi2b&#45;&gt;maskrom2</title>
<path fill="none" stroke="#000000" d="M275.5133,-611.1336C280.4767,-602.5068 286.591,-591.8796 292.1436,-582.2285"/>
<polygon fill="#000000" stroke="#000000" points="295.2861,-583.7849 297.2393,-573.3717 289.2186,-580.294 295.2861,-583.7849"/>
</g>
<!-- maskrom2&#45;&gt;sd_bootcode -->
<g id="edge7" class="edge">
<title>maskrom2&#45;&gt;sd_bootcode</title>
<path fill="none" stroke="#000000" d="M273.3589,-540.664C239.2821,-525.948 186.2642,-503.0523 145.2393,-485.3358"/>
<polygon fill="#000000" stroke="#000000" points="146.4535,-482.0478 135.8853,-481.2964 143.6782,-488.4742 146.4535,-482.0478"/>
<text text-anchor="middle" x="227.5599" y="-508.2335" font-family="Times,serif" font-size="14.00" fill="#000000">1</text>
</g>
<!-- nand_flash -->
<g id="node10" class="node">
<title>nand_flash</title>
<ellipse fill="none" stroke="#000000" cx="250.5599" cy="-459.5635" rx="61.1893" ry="18"/>
<text text-anchor="middle" x="250.5599" y="-455.8635" font-family="Times,serif" font-size="14.00" fill="#000000">nand_flash</text>
</g>
<!-- maskrom2&#45;&gt;nand_flash -->
<g id="edge8" class="edge">
<title>maskrom2&#45;&gt;nand_flash</title>
<path fill="none" stroke="#000000" d="M296.8387,-537.4011C288.3199,-523.0731 276.2726,-502.8105 266.6054,-486.5508"/>
<polygon fill="#000000" stroke="#000000" points="269.3521,-484.3219 261.2331,-477.5151 263.3352,-487.8993 269.3521,-484.3219"/>
<text text-anchor="middle" x="290.5599" y="-508.2335" font-family="Times,serif" font-size="14.00" fill="#000000">2</text>
</g>
<!-- spi_flash -->
<g id="node11" class="node">
<title>spi_flash</title>
<ellipse fill="none" stroke="#000000" cx="381.5599" cy="-459.5635" rx="51.9908" ry="18"/>
<text text-anchor="middle" x="381.5599" y="-455.8635" font-family="Times,serif" font-size="14.00" fill="#000000">spi_flash</text>
</g>
<!-- maskrom2&#45;&gt;spi_flash -->
<g id="edge9" class="edge">
<title>maskrom2&#45;&gt;spi_flash</title>
<path fill="none" stroke="#000000" d="M321.1327,-537.8495C332.5027,-523.1191 348.8868,-501.8929 361.727,-485.2579"/>
<polygon fill="#000000" stroke="#000000" points="364.7336,-487.0908 368.0732,-477.0361 359.1923,-482.8136 364.7336,-487.0908"/>
<text text-anchor="middle" x="351.5599" y="-508.2335" font-family="Times,serif" font-size="14.00" fill="#000000">3</text>
</g>
<!-- usb_boot -->
<g id="node12" class="node">
<title>usb_boot</title>
<ellipse fill="none" stroke="#000000" cx="504.5599" cy="-459.5635" rx="52.7911" ry="18"/>
<text text-anchor="middle" x="504.5599" y="-455.8635" font-family="Times,serif" font-size="14.00" fill="#000000">usb_boot</text>
</g>
<!-- maskrom2&#45;&gt;usb_boot -->
<g id="edge10" class="edge">
<title>maskrom2&#45;&gt;usb_boot</title>
<path fill="none" stroke="#000000" d="M339.2114,-540.0304C373.5027,-523.3425 428.2604,-496.6947 465.2758,-478.6811"/>
<polygon fill="#000000" stroke="#000000" points="466.8208,-481.8217 474.281,-474.2987 463.7577,-475.5275 466.8208,-481.8217"/>
<text text-anchor="middle" x="416.5599" y="-508.2335" font-family="Times,serif" font-size="14.00" fill="#000000">4</text>
</g>
<!-- rpi3 -->
<g id="node6" class="node">
<title>rpi3</title>
<ellipse fill="none" stroke="#000000" cx="349.5599" cy="-628.4335" rx="29.795" ry="18"/>
<text text-anchor="middle" x="349.5599" y="-624.7335" font-family="Times,serif" font-size="14.00" fill="#000000">rpi3</text>
</g>
<!-- rpi3&#45;&gt;maskrom2 -->
<g id="edge4" class="edge">
<title>rpi3&#45;&gt;maskrom2</title>
<path fill="none" stroke="#000000" d="M339.6065,-611.1336C334.6431,-602.5068 328.5289,-591.8796 322.9762,-582.2285"/>
<polygon fill="#000000" stroke="#000000" points="325.9012,-580.294 317.8805,-573.3717 319.8338,-583.7849 325.9012,-580.294"/>
</g>
<!-- rpi4 -->
<g id="node7" class="node">
<title>rpi4</title>
<ellipse fill="none" stroke="#000000" cx="677.5599" cy="-555.4335" rx="29.795" ry="18"/>
<text text-anchor="middle" x="677.5599" y="-551.7335" font-family="Times,serif" font-size="14.00" fill="#000000">rpi4</text>
</g>
<!-- maskrom3 -->
<g id="node8" class="node">
<title>maskrom3</title>
<ellipse fill="none" stroke="#000000" cx="677.5599" cy="-459.5635" rx="59.5901" ry="18"/>
<text text-anchor="middle" x="677.5599" y="-455.8635" font-family="Times,serif" font-size="14.00" fill="#000000">maskrom3</text>
</g>
<!-- rpi4&#45;&gt;maskrom3 -->
<g id="edge5" class="edge">
<title>rpi4&#45;&gt;maskrom3</title>
<path fill="none" stroke="#000000" d="M677.5599,-537.4011C677.5599,-523.563 677.5599,-504.1891 677.5599,-488.2322"/>
<polygon fill="#000000" stroke="#000000" points="681.06,-487.841 677.5599,-477.841 674.06,-487.841 681.06,-487.841"/>
</g>
<!-- sd_recovery -->
<g id="node13" class="node">
<title>sd_recovery</title>
<ellipse fill="none" stroke="#000000" cx="677.5599" cy="-363.6934" rx="67.6881" ry="18"/>
<text text-anchor="middle" x="677.5599" y="-359.9934" font-family="Times,serif" font-size="14.00" fill="#000000">sd_recovery</text>
</g>
<!-- maskrom3&#45;&gt;sd_recovery -->
<g id="edge11" class="edge">
<title>maskrom3&#45;&gt;sd_recovery</title>
<path fill="none" stroke="#000000" d="M677.5599,-441.5311C677.5599,-427.6929 677.5599,-408.319 677.5599,-392.3621"/>
<polygon fill="#000000" stroke="#000000" points="681.06,-391.9709 677.5599,-381.971 674.06,-391.971 681.06,-391.9709"/>
<text text-anchor="middle" x="682.5599" y="-403.4934" font-family="Times,serif" font-size="14.00" fill="#000000">1</text>
</g>
<!-- spi_blob -->
<g id="node14" class="node">
<title>spi_blob</title>
<ellipse fill="none" stroke="#000000" cx="735.5599" cy="-309.6934" rx="49.2915" ry="18"/>
<text text-anchor="middle" x="735.5599" y="-305.9934" font-family="Times,serif" font-size="14.00" fill="#000000">spi_blob</text>
</g>
<!-- maskrom3&#45;&gt;spi_blob -->
<g id="edge12" class="edge">
<title>maskrom3&#45;&gt;spi_blob</title>
<path fill="none" stroke="#000000" d="M702.1485,-443.0083C720.4484,-429.0855 744.0094,-407.3683 754.5599,-381.6934 760.6413,-366.8942 758.4068,-361.2241 754.5599,-345.6934 753.8027,-342.6366 752.7334,-339.5531 751.4836,-336.5449"/>
<polygon fill="#000000" stroke="#000000" points="754.5312,-334.8065 747.0374,-327.3169 748.225,-337.845 754.5312,-334.8065"/>
<text text-anchor="middle" x="748.5599" y="-403.4934" font-family="Times,serif" font-size="14.00" fill="#000000">2</text>
</g>
<!-- usb_device_boot -->
<g id="node15" class="node">
<title>usb_device_boot</title>
<ellipse fill="none" stroke="#000000" cx="504.5599" cy="-363.6934" rx="87.9851" ry="18"/>
<text text-anchor="middle" x="504.5599" y="-359.9934" font-family="Times,serif" font-size="14.00" fill="#000000">usb_device_boot</text>
</g>
<!-- maskrom3&#45;&gt;usb_device_boot -->
<g id="edge13" class="edge">
<title>maskrom3&#45;&gt;usb_device_boot</title>
<path fill="none" stroke="#000000" d="M648.9925,-443.7325C620.4297,-427.9041 576.2698,-403.4323 544.2971,-385.7143"/>
<polygon fill="#000000" stroke="#000000" points="545.655,-382.4653 535.2118,-380.6795 542.262,-388.5881 545.655,-382.4653"/>
<text text-anchor="middle" x="600.5599" y="-403.4934" font-family="Times,serif" font-size="14.00" fill="#000000">3</text>
</g>
<!-- start_elf -->
<g id="node19" class="node">
<title>start_elf</title>
<ellipse fill="none" stroke="#000000" cx="337.5599" cy="-108.7401" rx="48.1917" ry="18"/>
<text text-anchor="middle" x="337.5599" y="-105.0401" font-family="Times,serif" font-size="14.00" fill="#000000">start.elf</text>
</g>
<!-- sd_bootcode&#45;&gt;start_elf -->
<g id="edge18" class="edge">
<title>sd_bootcode&#45;&gt;start_elf</title>
<path fill="none" stroke="#000000" d="M85.6332,-432.6573C87.1515,-381.4094 97.2838,-268.6806 154.5599,-198.7401 188.2028,-157.6584 245.235,-133.8224 286.7047,-121.1253"/>
<polygon fill="#000000" stroke="#000000" points="287.7539,-124.465 296.3583,-118.2832 285.7769,-117.75 287.7539,-124.465"/>
</g>
<!-- usb_boot&#45;&gt;usb_device_boot -->
<g id="edge15" class="edge">
<title>usb_boot&#45;&gt;usb_device_boot</title>
<path fill="none" stroke="#000000" d="M504.5599,-441.5311C504.5599,-427.6929 504.5599,-408.319 504.5599,-392.3621"/>
<polygon fill="#000000" stroke="#000000" points="508.06,-391.9709 504.5599,-381.971 501.06,-391.971 508.06,-391.9709"/>
<text text-anchor="middle" x="532.0599" y="-403.4934" font-family="Times,serif" font-size="14.00" fill="#000000">OTG=1</text>
</g>
<!-- usb_host_boot -->
<g id="node16" class="node">
<title>usb_host_boot</title>
<ellipse fill="none" stroke="#000000" cx="321.5599" cy="-363.6934" rx="77.1866" ry="18"/>
<text text-anchor="middle" x="321.5599" y="-359.9934" font-family="Times,serif" font-size="14.00" fill="#000000">usb_host_boot</text>
</g>
<!-- usb_boot&#45;&gt;usb_host_boot -->
<g id="edge14" class="edge">
<title>usb_boot&#45;&gt;usb_host_boot</title>
<path fill="none" stroke="#000000" d="M475.563,-444.3726C445.0706,-428.3982 396.8387,-403.1305 362.4806,-385.1309"/>
<polygon fill="#000000" stroke="#000000" points="363.6663,-381.8009 353.184,-380.2606 360.4178,-388.0016 363.6663,-381.8009"/>
<text text-anchor="middle" x="445.0599" y="-403.4934" font-family="Times,serif" font-size="14.00" fill="#000000">OTG=0</text>
</g>
<!-- start4_elf -->
<g id="node20" class="node">
<title>start4_elf</title>
<ellipse fill="none" stroke="#000000" cx="594.5599" cy="-162.7401" rx="53.8905" ry="18"/>
<text text-anchor="middle" x="594.5599" y="-159.0401" font-family="Times,serif" font-size="14.00" fill="#000000">start4.elf</text>
</g>
<!-- spi_blob&#45;&gt;start4_elf -->
<g id="edge21" class="edge">
<title>spi_blob&#45;&gt;start4_elf</title>
<path fill="none" stroke="#000000" d="M719.1095,-292.5484C694.3023,-266.6939 647.1817,-217.5837 618.5472,-187.7401"/>
<polygon fill="#000000" stroke="#000000" points="620.7916,-185.024 611.3426,-180.2314 615.7406,-189.8704 620.7916,-185.024"/>
<text text-anchor="middle" x="751.5599" y="-232.5168" font-family="Times,serif" font-size="14.00" fill="#000000">over SD or tftp</text>
</g>
<!-- usb_bootcode -->
<g id="node17" class="node">
<title>usb_bootcode</title>
<ellipse fill="none" stroke="#000000" cx="279.5599" cy="-236.2168" rx="115.931" ry="26.7407"/>
<text text-anchor="middle" x="279.5599" y="-240.0168" font-family="Times,serif" font-size="14.00" fill="#000000">bootcode.bin</text>
<text text-anchor="middle" x="279.5599" y="-225.0168" font-family="Times,serif" font-size="14.00" fill="#000000">on usb mass&#45;storage</text>
</g>
<!-- usb_host_boot&#45;&gt;usb_bootcode -->
<g id="edge16" class="edge">
<title>usb_host_boot&#45;&gt;usb_bootcode</title>
<path fill="none" stroke="#000000" d="M315.6314,-345.6995C309.4584,-326.9633 299.613,-297.0809 291.7665,-273.2656"/>
<polygon fill="#000000" stroke="#000000" points="294.9961,-271.8831 288.5426,-263.4806 288.3477,-274.0737 294.9961,-271.8831"/>
</g>
<!-- usb_netboot -->
<g id="node18" class="node">
<title>usb_netboot</title>
<ellipse fill="none" stroke="#000000" cx="499.5599" cy="-236.2168" rx="85.6199" ry="37.4533"/>
<text text-anchor="middle" x="499.5599" y="-247.5168" font-family="Times,serif" font-size="14.00" fill="#000000">bootcode.bin</text>
<text text-anchor="middle" x="499.5599" y="-232.5168" font-family="Times,serif" font-size="14.00" fill="#000000">over tftp</text>
<text text-anchor="middle" x="499.5599" y="-217.5168" font-family="Times,serif" font-size="14.00" fill="#000000">over LAN951x</text>
</g>
<!-- usb_host_boot&#45;&gt;usb_netboot -->
<g id="edge17" class="edge">
<title>usb_host_boot&#45;&gt;usb_netboot</title>
<path fill="none" stroke="#000000" d="M345.5658,-346.5014C371.2854,-328.082 412.9274,-298.2596 446.4275,-274.2682"/>
<polygon fill="#000000" stroke="#000000" points="448.6621,-276.9728 454.7543,-268.3048 444.5863,-271.2818 448.6621,-276.9728"/>
</g>
<!-- usb_bootcode&#45;&gt;start_elf -->
<g id="edge19" class="edge">
<title>usb_bootcode&#45;&gt;start_elf</title>
<path fill="none" stroke="#000000" d="M291.7186,-209.4935C301.5127,-187.9675 315.2286,-157.8216 325.1015,-136.1222"/>
<polygon fill="#000000" stroke="#000000" points="328.3837,-137.3595 329.3394,-126.8078 322.0122,-134.4605 328.3837,-137.3595"/>
</g>
<!-- usb_netboot&#45;&gt;start_elf -->
<g id="edge20" class="edge">
<title>usb_netboot&#45;&gt;start_elf</title>
<path fill="none" stroke="#000000" d="M457.8409,-203.3884C429.2035,-180.8538 391.9229,-151.5179 366.506,-131.5176"/>
<polygon fill="#000000" stroke="#000000" points="368.3939,-128.5495 358.3708,-125.116 364.0651,-134.0506 368.3939,-128.5495"/>
</g>
<!-- final -->
<g id="node21" class="node">
<title>final</title>
<ellipse fill="none" stroke="#000000" cx="379.5599" cy="-26.8701" rx="147.5709" ry="26.7407"/>
<text text-anchor="middle" x="379.5599" y="-30.6701" font-family="Times,serif" font-size="14.00" fill="#000000">load linux and enable arm</text>
<text text-anchor="middle" x="379.5599" y="-15.6701" font-family="Times,serif" font-size="14.00" fill="#000000">as configured by config.txt</text>
</g>
<!-- start_elf&#45;&gt;final -->
<g id="edge22" class="edge">
<title>start_elf&#45;&gt;final</title>
<path fill="none" stroke="#000000" d="M346.6733,-90.9755C350.915,-82.7073 356.1213,-72.5586 361.1297,-62.7958"/>
<polygon fill="#000000" stroke="#000000" points="364.3826,-64.1229 365.833,-53.6278 358.1543,-60.9277 364.3826,-64.1229"/>
</g>
<!-- start4_elf&#45;&gt;final -->
<g id="edge23" class="edge">
<title>start4_elf&#45;&gt;final</title>
<path fill="none" stroke="#000000" d="M569.0523,-146.6205C534.6396,-124.8733 472.6279,-85.6847 428.9351,-58.0729"/>
<polygon fill="#000000" stroke="#000000" points="430.7776,-55.097 420.4543,-52.7134 427.038,-61.0144 430.7776,-55.097"/>
</g>
</g>
</svg>
