<?xml version="1.0" encoding="UTF-8" standalone="no"?>
<!DOCTYPE svg PUBLIC "-//W3C//DTD SVG 1.1//EN"
 "http://www.w3.org/Graphics/SVG/1.1/DTD/svg11.dtd">
<!-- Generated by graphviz version 2.40.1 (20161225.0304)
 -->
<!-- Title: %3 Pages: 1 -->
<svg width="1507pt" height="415pt"
 viewBox="0.00 0.00 1507.19 415.43" xmlns="http://www.w3.org/2000/svg" xmlns:xlink="http://www.w3.org/1999/xlink">
<g id="graph0" class="graph" transform="scale(1 1) rotate(0) translate(4 411.4335)">
<title>%3</title>
<polygon fill="#ffffff" stroke="transparent" points="-4,4 -4,-411.4335 1503.1903,-411.4335 1503.1903,4 -4,4"/>
<!-- sdhost -->
<g id="node1" class="node">
<title>sdhost</title>
<ellipse fill="none" stroke="#000000" cx="147.7445" cy="-369.9569" rx="74.9067" ry="37.4533"/>
<text text-anchor="middle" x="147.7445" y="-381.2569" font-family="Times,serif" font-size="14.00" fill="#000000">SDHOST</text>
<text text-anchor="middle" x="147.7445" y="-366.2569" font-family="Times,serif" font-size="14.00" fill="#000000">0x7e202000</text>
<text text-anchor="middle" x="147.7445" y="-351.2569" font-family="Times,serif" font-size="14.00" fill="#000000">SD0_x</text>
</g>
<!-- sd_bank0 -->
<g id="node5" class="node">
<title>sd_bank0</title>
<ellipse fill="none" stroke="#000000" cx="201.7445" cy="-254.6102" rx="55.4913" ry="18"/>
<text text-anchor="middle" x="201.7445" y="-250.9102" font-family="Times,serif" font-size="14.00" fill="#000000">sd_bank0</text>
</g>
<!-- sdhost&#45;&gt;sd_bank0 -->
<g id="edge4" class="edge">
<title>sdhost&#45;&gt;sd_bank0</title>
<path fill="none" stroke="#000000" d="M164.8305,-333.4605C172.6373,-316.7847 181.7283,-297.3659 188.935,-281.972"/>
<polygon fill="#000000" stroke="#000000" points="192.2961,-283.0472 193.3663,-272.5065 185.9565,-280.0792 192.2961,-283.0472"/>
</g>
<!-- sd_bank2 -->
<g id="node9" class="node">
<title>sd_bank2</title>
<ellipse fill="none" stroke="#000000" cx="73.7445" cy="-254.6102" rx="55.4913" ry="18"/>
<text text-anchor="middle" x="73.7445" y="-250.9102" font-family="Times,serif" font-size="14.00" fill="#000000">sd_bank2</text>
</g>
<!-- sdhost&#45;&gt;sd_bank2 -->
<g id="edge5" class="edge">
<title>sdhost&#45;&gt;sd_bank2</title>
<path fill="none" stroke="#000000" d="M124.7361,-334.0928C113.7414,-316.9549 100.8137,-296.804 90.7262,-281.0802"/>
<polygon fill="#000000" stroke="#000000" points="93.4969,-278.9171 85.1512,-272.3902 87.6051,-282.6969 93.4969,-278.9171"/>
</g>
<!-- sdhci -->
<g id="node2" class="node">
<title>sdhci</title>
<ellipse fill="none" stroke="#000000" cx="316.7445" cy="-369.9569" rx="74.9067" ry="37.4533"/>
<text text-anchor="middle" x="316.7445" y="-381.2569" font-family="Times,serif" font-size="14.00" fill="#000000">SDHCI</text>
<text text-anchor="middle" x="316.7445" y="-366.2569" font-family="Times,serif" font-size="14.00" fill="#000000">0x7e300000</text>
<text text-anchor="middle" x="316.7445" y="-351.2569" font-family="Times,serif" font-size="14.00" fill="#000000">SD1_x</text>
</g>
<!-- sdhci&#45;&gt;sd_bank0 -->
<g id="edge8" class="edge">
<title>sdhci&#45;&gt;sd_bank0</title>
<path fill="none" stroke="#000000" d="M296.5765,-333.8126C289.0532,-322.0982 279.8564,-309.5428 269.7445,-299.4802 260.737,-290.5166 249.6765,-282.3181 239.1135,-275.4516"/>
<polygon fill="#000000" stroke="#000000" points="240.7477,-272.3455 230.4135,-270.0095 237.0354,-278.2801 240.7477,-272.3455"/>
</g>
<!-- sd_bank1 -->
<g id="node7" class="node">
<title>sd_bank1</title>
<ellipse fill="none" stroke="#000000" cx="348.7445" cy="-254.6102" rx="73.5782" ry="26.7407"/>
<text text-anchor="middle" x="348.7445" y="-258.4102" font-family="Times,serif" font-size="14.00" fill="#000000">sd_bank1</text>
<text text-anchor="middle" x="348.7445" y="-243.4102" font-family="Times,serif" font-size="14.00" fill="#000000">8bit capable</text>
</g>
<!-- sdhci&#45;&gt;sd_bank1 -->
<g id="edge9" class="edge">
<title>sdhci&#45;&gt;sd_bank1</title>
<path fill="none" stroke="#00ff00" d="M329.7214,-323.1808C332.6774,-312.5256 335.7762,-301.3555 338.5943,-291.1975"/>
<polygon fill="#00ff00" stroke="#00ff00" points="326.3464,-322.2538 327.0457,-332.8255 333.0916,-324.1252 326.3464,-322.2538"/>
<polygon fill="#00ff00" stroke="#00ff00" points="342.0024,-292.005 341.3031,-281.4333 335.2572,-290.1337 342.0024,-292.005"/>
</g>
<!-- sdhci&#45;&gt;sd_bank2 -->
<g id="edge10" class="edge">
<title>sdhci&#45;&gt;sd_bank2</title>
<path fill="none" stroke="#000000" d="M262.2106,-344.0708C217.2934,-322.7496 154.6189,-292.9994 114.108,-273.7698"/>
<polygon fill="#000000" stroke="#000000" points="115.5983,-270.603 105.0635,-269.4766 112.5965,-276.9267 115.5983,-270.603"/>
</g>
<!-- sdmux -->
<g id="node13" class="node">
<title>sdmux</title>
<ellipse fill="none" stroke="#000000" cx="503.7445" cy="-254.6102" rx="42.4939" ry="18"/>
<text text-anchor="middle" x="503.7445" y="-250.9102" font-family="Times,serif" font-size="14.00" fill="#000000">sdmux</text>
</g>
<!-- sdhci&#45;&gt;sdmux -->
<g id="edge11" class="edge">
<title>sdhci&#45;&gt;sdmux</title>
<path fill="none" stroke="#ff0000" d="M373.2539,-335.1003C405.1875,-315.4029 443.9842,-291.472 470.9351,-274.8479"/>
<polygon fill="#ff0000" stroke="#ff0000" points="371.09,-332.3228 364.4164,-340.5516 374.765,-338.2806 371.09,-332.3228"/>
<polygon fill="#ff0000" stroke="#ff0000" points="472.9202,-277.7358 479.5938,-269.507 469.2453,-271.778 472.9202,-277.7358"/>
</g>
<!-- EMMC2 -->
<g id="node3" class="node">
<title>EMMC2</title>
<ellipse fill="none" stroke="#000000" cx="503.7445" cy="-369.9569" rx="74.9067" ry="26.7407"/>
<text text-anchor="middle" x="503.7445" y="-373.7569" font-family="Times,serif" font-size="14.00" fill="#000000">EMMC2</text>
<text text-anchor="middle" x="503.7445" y="-358.7569" font-family="Times,serif" font-size="14.00" fill="#000000">0x7e340000</text>
</g>
<!-- EMMC2&#45;&gt;sdmux -->
<g id="edge7" class="edge">
<title>EMMC2&#45;&gt;sdmux</title>
<path fill="none" stroke="#00ff00" d="M503.7445,-332.8349C503.7445,-316.6967 503.7445,-298.0887 503.7445,-283.0712"/>
<polygon fill="#00ff00" stroke="#00ff00" points="500.2446,-332.9132 503.7445,-342.9132 507.2446,-332.9132 500.2446,-332.9132"/>
<polygon fill="#00ff00" stroke="#00ff00" points="507.2446,-282.8573 503.7445,-272.8574 500.2446,-282.8574 507.2446,-282.8573"/>
</g>
<!-- genet -->
<g id="node4" class="node">
<title>genet</title>
<ellipse fill="none" stroke="#000000" cx="782.7445" cy="-369.9569" rx="37.8943" ry="18"/>
<text text-anchor="middle" x="782.7445" y="-366.2569" font-family="Times,serif" font-size="14.00" fill="#000000">genet</text>
</g>
<!-- ethernetmux -->
<g id="node14" class="node">
<title>ethernetmux</title>
<ellipse fill="none" stroke="#000000" cx="704.7445" cy="-254.6102" rx="71.4873" ry="18"/>
<text text-anchor="middle" x="704.7445" y="-250.9102" font-family="Times,serif" font-size="14.00" fill="#000000">ethernetmux</text>
</g>
<!-- genet&#45;&gt;ethernetmux -->
<g id="edge12" class="edge">
<title>genet&#45;&gt;ethernetmux</title>
<path fill="none" stroke="#000000" d="M765.1966,-344.0069C752.5135,-325.2512 735.4366,-299.9977 722.668,-281.1154"/>
<polygon fill="#000000" stroke="#000000" points="762.3969,-346.115 770.898,-352.4382 768.1956,-342.1938 762.3969,-346.115"/>
<polygon fill="#000000" stroke="#000000" points="725.4612,-278.9979 716.9602,-272.6747 719.6625,-282.9191 725.4612,-278.9979"/>
</g>
<!-- GPIO28_29 -->
<g id="node15" class="node">
<title>GPIO28_29</title>
<ellipse fill="none" stroke="#000000" cx="811.7445" cy="-191.7401" rx="61.99" ry="18"/>
<text text-anchor="middle" x="811.7445" y="-188.0401" font-family="Times,serif" font-size="14.00" fill="#000000">GPIO28_29</text>
</g>
<!-- genet&#45;&gt;GPIO28_29 -->
<g id="edge13" class="edge">
<title>genet&#45;&gt;GPIO28_29</title>
<path fill="none" stroke="#000000" d="M787.3293,-341.7814C792.758,-308.4201 801.7452,-253.1903 807.1695,-219.8553"/>
<polygon fill="#000000" stroke="#000000" points="783.8364,-341.4554 785.6848,-351.8878 790.7455,-342.5797 783.8364,-341.4554"/>
<polygon fill="#000000" stroke="#000000" points="810.6448,-220.2894 808.7965,-209.8571 803.7357,-219.1651 810.6448,-220.2894"/>
</g>
<!-- GPIO22_27 -->
<g id="node6" class="node">
<title>GPIO22_27</title>
<ellipse fill="none" stroke="#000000" cx="202.7445" cy="-128.8701" rx="61.99" ry="18"/>
<text text-anchor="middle" x="202.7445" y="-125.1701" font-family="Times,serif" font-size="14.00" fill="#000000">GPIO22_27</text>
</g>
<!-- sd_bank0&#45;&gt;GPIO22_27 -->
<g id="edge1" class="edge">
<title>sd_bank0&#45;&gt;GPIO22_27</title>
<path fill="none" stroke="#000000" d="M201.8878,-236.5947C202.0525,-215.8911 202.3248,-181.6464 202.5182,-157.3286"/>
<polygon fill="#000000" stroke="#000000" points="206.0185,-157.2886 202.5983,-147.261 199.0187,-157.2328 206.0185,-157.2886"/>
</g>
<!-- GPIO34_43 -->
<g id="node8" class="node">
<title>GPIO34_43</title>
<ellipse fill="none" stroke="#000000" cx="346.7445" cy="-128.8701" rx="61.99" ry="18"/>
<text text-anchor="middle" x="346.7445" y="-125.1701" font-family="Times,serif" font-size="14.00" fill="#000000">GPIO34_43</text>
</g>
<!-- sd_bank1&#45;&gt;GPIO34_43 -->
<g id="edge2" class="edge">
<title>sd_bank1&#45;&gt;GPIO34_43</title>
<path fill="none" stroke="#000000" d="M348.3155,-227.6358C347.9851,-206.8657 347.5297,-178.2352 347.1943,-157.1459"/>
<polygon fill="#000000" stroke="#000000" points="350.6898,-156.8296 347.0311,-146.8866 343.6907,-156.941 350.6898,-156.8296"/>
</g>
<!-- wifi -->
<g id="node23" class="node">
<title>wifi</title>
<ellipse fill="none" stroke="#000000" cx="346.7445" cy="-18" rx="27" ry="18"/>
<text text-anchor="middle" x="346.7445" y="-14.3" font-family="Times,serif" font-size="14.00" fill="#000000">wifi</text>
</g>
<!-- GPIO34_43&#45;&gt;wifi -->
<g id="edge20" class="edge">
<title>GPIO34_43&#45;&gt;wifi</title>
<path fill="none" stroke="#000000" d="M346.7445,-110.5621C346.7445,-93.1492 346.7445,-66.6911 346.7445,-46.5155"/>
<polygon fill="#000000" stroke="#000000" points="350.2446,-46.3351 346.7445,-36.3351 343.2446,-46.3352 350.2446,-46.3351"/>
<text text-anchor="middle" x="383.2445" y="-72.8" font-family="Times,serif" font-size="14.00" fill="#000000">34&#45;39</text>
<text text-anchor="middle" x="383.2445" y="-57.8" font-family="Times,serif" font-size="14.00" fill="#000000">4bit mode</text>
</g>
<!-- GPIO48_53 -->
<g id="node10" class="node">
<title>GPIO48_53</title>
<ellipse fill="none" stroke="#000000" cx="61.7445" cy="-128.8701" rx="61.99" ry="18"/>
<text text-anchor="middle" x="61.7445" y="-125.1701" font-family="Times,serif" font-size="14.00" fill="#000000">GPIO48_53</text>
</g>
<!-- sd_bank2&#45;&gt;GPIO48_53 -->
<g id="edge3" class="edge">
<title>sd_bank2&#45;&gt;GPIO48_53</title>
<path fill="none" stroke="#000000" d="M72.0252,-236.5947C70.0494,-215.8911 66.7812,-181.6464 64.4605,-157.3286"/>
<polygon fill="#000000" stroke="#000000" points="67.934,-156.8833 63.4997,-147.261 60.9656,-157.5483 67.934,-156.8833"/>
</g>
<!-- PL011 -->
<g id="node11" class="node">
<title>PL011</title>
<ellipse fill="none" stroke="#000000" cx="921.7445" cy="-369.9569" rx="38.9931" ry="18"/>
<text text-anchor="middle" x="921.7445" y="-366.2569" font-family="Times,serif" font-size="14.00" fill="#000000">PL011</text>
</g>
<!-- GPIO30_33 -->
<g id="node12" class="node">
<title>GPIO30_33</title>
<ellipse fill="none" stroke="#000000" cx="921.7445" cy="-254.6102" rx="61.99" ry="18"/>
<text text-anchor="middle" x="921.7445" y="-250.9102" font-family="Times,serif" font-size="14.00" fill="#000000">GPIO30_33</text>
</g>
<!-- PL011&#45;&gt;GPIO30_33 -->
<g id="edge6" class="edge">
<title>PL011&#45;&gt;GPIO30_33</title>
<path fill="none" stroke="#000000" d="M921.7445,-351.934C921.7445,-333.5046 921.7445,-304.6057 921.7445,-283.0801"/>
<polygon fill="#000000" stroke="#000000" points="925.2446,-282.8872 921.7445,-272.8872 918.2446,-282.8872 925.2446,-282.8872"/>
</g>
<!-- bluetooth -->
<g id="node22" class="node">
<title>bluetooth</title>
<ellipse fill="none" stroke="#000000" cx="921.7445" cy="-128.8701" rx="55.4913" ry="18"/>
<text text-anchor="middle" x="921.7445" y="-125.1701" font-family="Times,serif" font-size="14.00" fill="#000000">bluetooth</text>
</g>
<!-- GPIO30_33&#45;&gt;bluetooth -->
<g id="edge19" class="edge">
<title>GPIO30_33&#45;&gt;bluetooth</title>
<path fill="none" stroke="#000000" d="M921.7445,-236.5947C921.7445,-215.8911 921.7445,-181.6464 921.7445,-157.3286"/>
<polygon fill="#000000" stroke="#000000" points="925.2446,-157.261 921.7445,-147.261 918.2446,-157.2611 925.2446,-157.261"/>
</g>
<!-- uSD -->
<g id="node17" class="node">
<title>uSD</title>
<ellipse fill="none" stroke="#000000" cx="525.7445" cy="-128.8701" rx="98.9899" ry="26.7407"/>
<text text-anchor="middle" x="525.7445" y="-132.6701" font-family="Times,serif" font-size="14.00" fill="#000000">uSD slot</text>
<text text-anchor="middle" x="525.7445" y="-117.6701" font-family="Times,serif" font-size="14.00" fill="#000000">not on gpio array</text>
</g>
<!-- sdmux&#45;&gt;uSD -->
<g id="edge15" class="edge">
<title>sdmux&#45;&gt;uSD</title>
<path fill="none" stroke="#000000" d="M508.6341,-226.6642C511.7529,-208.8384 515.8318,-185.5261 519.2247,-166.1339"/>
<polygon fill="#000000" stroke="#000000" points="505.1725,-226.1411 506.8966,-236.5947 512.0678,-227.3476 505.1725,-226.1411"/>
<polygon fill="#000000" stroke="#000000" points="522.7021,-166.5662 520.978,-156.1126 515.8069,-165.3598 522.7021,-166.5662"/>
</g>
<!-- GPIO46_57 -->
<g id="node16" class="node">
<title>GPIO46_57</title>
<ellipse fill="none" stroke="#000000" cx="704.7445" cy="-128.8701" rx="61.99" ry="18"/>
<text text-anchor="middle" x="704.7445" y="-125.1701" font-family="Times,serif" font-size="14.00" fill="#000000">GPIO46_57</text>
</g>
<!-- ethernetmux&#45;&gt;GPIO46_57 -->
<g id="edge14" class="edge">
<title>ethernetmux&#45;&gt;GPIO46_57</title>
<path fill="none" stroke="#000000" d="M699.643,-226.264C698.8522,-220.7985 698.1605,-215.105 697.7445,-209.7401 696.5077,-193.788 696.5077,-189.6922 697.7445,-173.7401 698.1605,-168.3753 698.8522,-162.6818 699.643,-157.2162"/>
<polygon fill="#000000" stroke="#000000" points="696.2187,-227.0177 701.2396,-236.3473 703.1325,-225.9229 696.2187,-227.0177"/>
<polygon fill="#000000" stroke="#000000" points="703.1325,-157.5573 701.2396,-147.133 696.2187,-156.4625 703.1325,-157.5573"/>
<text text-anchor="middle" x="719.2445" y="-188.0401" font-family="Times,serif" font-size="14.00" fill="#000000">RGMII</text>
</g>
<!-- gigabit_phy -->
<g id="node21" class="node">
<title>gigabit_phy</title>
<ellipse fill="none" stroke="#000000" cx="779.7445" cy="-18" rx="64.189" ry="18"/>
<text text-anchor="middle" x="779.7445" y="-14.3" font-family="Times,serif" font-size="14.00" fill="#000000">gigabit_phy</text>
</g>
<!-- GPIO28_29&#45;&gt;gigabit_phy -->
<g id="edge18" class="edge">
<title>GPIO28_29&#45;&gt;gigabit_phy</title>
<path fill="none" stroke="#000000" d="M810.4917,-163.3015C808.7273,-135.1476 804.543,-91.0129 794.7445,-54 793.9973,-51.1773 793.0761,-48.284 792.0608,-45.424"/>
<polygon fill="#000000" stroke="#000000" points="807.0158,-163.8276 811.0739,-173.6144 814.0046,-163.433 807.0158,-163.8276"/>
<polygon fill="#000000" stroke="#000000" points="795.2679,-44.0149 788.3624,-35.9796 788.7498,-46.5673 795.2679,-44.0149"/>
<text text-anchor="middle" x="830.7445" y="-125.1701" font-family="Times,serif" font-size="14.00" fill="#000000">MDIO</text>
</g>
<!-- GPIO46_57&#45;&gt;gigabit_phy -->
<g id="edge25" class="edge">
<title>GPIO46_57&#45;&gt;gigabit_phy</title>
<path fill="none" stroke="#000000" d="M720.6685,-102.0686C729.4861,-87.6039 740.8416,-69.5728 751.7445,-54 754.079,-50.6657 756.6049,-47.2188 759.1513,-43.8391"/>
<polygon fill="#000000" stroke="#000000" points="717.4491,-100.6288 715.2709,-110.9973 723.4396,-104.2502 717.4491,-100.6288"/>
<polygon fill="#000000" stroke="#000000" points="762.1051,-45.7395 765.4258,-35.6785 756.5558,-41.4728 762.1051,-45.7395"/>
<text text-anchor="middle" x="773.2445" y="-65.3" font-family="Times,serif" font-size="14.00" fill="#000000">RGMII</text>
</g>
<!-- SPI2 -->
<g id="node18" class="node">
<title>SPI2</title>
<ellipse fill="none" stroke="#000000" cx="1234.7445" cy="-369.9569" rx="30.5947" ry="18"/>
<text text-anchor="middle" x="1234.7445" y="-366.2569" font-family="Times,serif" font-size="14.00" fill="#000000">SPI2</text>
</g>
<!-- GPIO40_45 -->
<g id="node19" class="node">
<title>GPIO40_45</title>
<ellipse fill="none" stroke="#000000" cx="1278.7445" cy="-254.6102" rx="61.99" ry="18"/>
<text text-anchor="middle" x="1278.7445" y="-250.9102" font-family="Times,serif" font-size="14.00" fill="#000000">GPIO40_45</text>
</g>
<!-- SPI2&#45;&gt;GPIO40_45 -->
<g id="edge16" class="edge">
<title>SPI2&#45;&gt;GPIO40_45</title>
<path fill="none" stroke="#ff0000" d="M1243.5162,-342.2988C1247.8298,-329.2156 1253.2704,-313.4378 1258.7445,-299.4802 1260.9788,-293.7833 1263.5317,-287.7551 1266.0492,-282.0288"/>
<polygon fill="#ff0000" stroke="#ff0000" points="1240.0842,-341.5351 1240.3192,-352.1273 1246.7409,-343.7004 1240.0842,-341.5351"/>
<polygon fill="#ff0000" stroke="#ff0000" points="1269.2944,-283.3457 1270.1899,-272.7887 1262.9065,-280.4831 1269.2944,-283.3457"/>
<text text-anchor="middle" x="1279.7445" y="-303.2802" font-family="Times,serif" font-size="14.00" fill="#000000">40&#45;45</text>
</g>
<!-- analog_audio -->
<g id="node24" class="node">
<title>analog_audio</title>
<ellipse fill="none" stroke="#000000" cx="1068.7445" cy="-128.8701" rx="73.387" ry="18"/>
<text text-anchor="middle" x="1068.7445" y="-125.1701" font-family="Times,serif" font-size="14.00" fill="#000000">analog_audio</text>
</g>
<!-- GPIO40_45&#45;&gt;analog_audio -->
<g id="edge21" class="edge">
<title>GPIO40_45&#45;&gt;analog_audio</title>
<path fill="none" stroke="#00ff00" d="M1248.5016,-238.6475C1232.9104,-230.2709 1213.6659,-219.702 1196.7445,-209.7401 1164.5266,-190.7729 1128.5976,-167.9188 1103.0263,-151.3516"/>
<polygon fill="#00ff00" stroke="#00ff00" points="1104.7288,-148.2839 1094.4364,-145.7704 1100.9149,-154.1537 1104.7288,-148.2839"/>
<text text-anchor="middle" x="1217.2445" y="-188.0401" font-family="Times,serif" font-size="14.00" fill="#000000">40,41</text>
</g>
<!-- status_led -->
<g id="node25" class="node">
<title>status_led</title>
<ellipse fill="none" stroke="#000000" cx="1217.7445" cy="-128.8701" rx="57.6901" ry="18"/>
<text text-anchor="middle" x="1217.7445" y="-125.1701" font-family="Times,serif" font-size="14.00" fill="#000000">status_led</text>
</g>
<!-- GPIO40_45&#45;&gt;status_led -->
<g id="edge22" class="edge">
<title>GPIO40_45&#45;&gt;status_led</title>
<path fill="none" stroke="#00ff00" d="M1270.0047,-236.5947C1259.7675,-215.4927 1242.7059,-180.3233 1230.8749,-155.9359"/>
<polygon fill="#00ff00" stroke="#00ff00" points="1233.982,-154.3216 1226.4681,-146.8521 1227.6839,-157.377 1233.982,-154.3216"/>
<text text-anchor="middle" x="1265.2445" y="-188.0401" font-family="Times,serif" font-size="14.00" fill="#000000">42</text>
</g>
<!-- camera -->
<g id="node26" class="node">
<title>camera</title>
<ellipse fill="none" stroke="#000000" cx="1339.7445" cy="-128.8701" rx="46.2923" ry="18"/>
<text text-anchor="middle" x="1339.7445" y="-125.1701" font-family="Times,serif" font-size="14.00" fill="#000000">camera</text>
</g>
<!-- GPIO40_45&#45;&gt;camera -->
<g id="edge23" class="edge">
<title>GPIO40_45&#45;&gt;camera</title>
<path fill="none" stroke="#00ff00" d="M1291.8936,-227.5057C1302.1582,-206.3473 1316.3513,-177.0907 1326.6117,-155.9409"/>
<polygon fill="#00ff00" stroke="#00ff00" points="1288.7002,-226.0698 1287.4843,-236.5947 1294.9982,-229.1252 1288.7002,-226.0698"/>
<polygon fill="#00ff00" stroke="#00ff00" points="1329.8051,-157.377 1331.0209,-146.8521 1323.5071,-154.3216 1329.8051,-157.377"/>
<text text-anchor="middle" x="1337.2445" y="-188.0401" font-family="Times,serif" font-size="14.00" fill="#000000">44,45</text>
</g>
<!-- eeprom -->
<g id="node27" class="node">
<title>eeprom</title>
<ellipse fill="none" stroke="#000000" cx="1451.7445" cy="-128.8701" rx="47.3916" ry="18"/>
<text text-anchor="middle" x="1451.7445" y="-125.1701" font-family="Times,serif" font-size="14.00" fill="#000000">eeprom</text>
</g>
<!-- GPIO40_45&#45;&gt;eeprom -->
<g id="edge24" class="edge">
<title>GPIO40_45&#45;&gt;eeprom</title>
<path fill="none" stroke="#ff0000" d="M1320.4716,-234.5236C1334.0428,-227.3496 1348.9064,-218.7859 1361.7445,-209.7401 1385.7192,-192.8475 1410.3128,-170.3267 1427.7192,-153.3413"/>
<polygon fill="#ff0000" stroke="#ff0000" points="1318.5965,-231.5529 1311.3234,-239.257 1321.8133,-237.77 1318.5965,-231.5529"/>
<polygon fill="#ff0000" stroke="#ff0000" points="1430.5294,-155.485 1435.1829,-145.9668 1425.6095,-150.5055 1430.5294,-155.485"/>
<text text-anchor="middle" x="1425.7445" y="-188.0401" font-family="Times,serif" font-size="14.00" fill="#000000">40&#45;43</text>
</g>
<!-- PWM1 -->
<g id="node20" class="node">
<title>PWM1</title>
<ellipse fill="none" stroke="#000000" cx="1322.7445" cy="-369.9569" rx="38.9931" ry="18"/>
<text text-anchor="middle" x="1322.7445" y="-366.2569" font-family="Times,serif" font-size="14.00" fill="#000000">PWM1</text>
</g>
<!-- PWM1&#45;&gt;GPIO40_45 -->
<g id="edge17" class="edge">
<title>PWM1&#45;&gt;GPIO40_45</title>
<path fill="none" stroke="#00ff00" d="M1317.9694,-352.0266C1313.9384,-337.6237 1307.7198,-316.9838 1300.7445,-299.4802 1298.4401,-293.6975 1295.6992,-287.6316 1292.9476,-281.8955"/>
<polygon fill="#00ff00" stroke="#00ff00" points="1295.9516,-280.0743 1288.3818,-272.6616 1289.6768,-283.177 1295.9516,-280.0743"/>
<text text-anchor="middle" x="1326.2445" y="-303.2802" font-family="Times,serif" font-size="14.00" fill="#000000">40,41</text>
</g>
</g>
</svg>
